<?xml version="1.0" encoding="utf-8"?>
<!-- Generator: Adobe Illustrator 24.1.2, SVG Export Plug-In . SVG Version: 6.00 Build 0)  -->
<svg version="1.1" id="Layer_1" xmlns="http://www.w3.org/2000/svg" xmlns:xlink="http://www.w3.org/1999/xlink" x="0px" y="0px"
	 viewBox="0 0 200 200" style="enable-background:new 0 0 200 200;" xml:space="preserve">
<style type="text/css">
	.st0{fill:none;}
	.st1{fill:#F4B7D0;}
	.st2{fill:#FDE7EF;}
	.st3{fill:#F5D0DF;}
	.st4{fill:#FCDBEA;}
	.st5{fill:#F5DDE7;}
	.st6{fill:#FDE8EF;}
	.st7{fill:#FCDAE9;}
	.st8{fill:#F8DFE9;}
	.st9{fill:#FDE8F0;}
	.st10{fill:#F6DFE8;}
	.st11{fill:#FCDBE9;}
	.st12{fill:#FDE9F0;}
	.st13{fill:#FDE5EE;}
	.st14{fill:#FCE1EC;}
	.st15{fill:#FDE1EC;}
	.st16{fill:#F6C2D7;}
	.st17{fill:#FDEBF2;}
	.st18{fill:#F6C6DA;}
	.st19{fill:#F7CEDE;}
	.st20{fill:#F9DBE7;}
	.st21{fill:#FBE7EF;}
	.st22{fill:#F5C1D6;}
	.st23{fill:#F9D3E3;}
	.st24{fill:#F6C5D8;}
	.st25{fill:#F8D5E3;}
	.st26{fill:#F6C4D8;}
	.st27{fill:#F5BDD4;}
	.st28{fill:#F9D0E0;}
	.st29{fill:#EBC7D6;}
	.st30{fill:#F4C3D7;}
	.st31{fill:#F4BDD4;}
	.st32{fill:#F6D1E0;}
	.st33{fill:#F5BED4;}
	.st34{fill:#F6C1D7;}
	.st35{fill:#FACFE0;}
	.st36{fill:#FBD2E3;}
	.st37{fill:#F6C5D9;}
	.st38{fill:#FBE0EA;}
	.st39{fill:#F4C6D8;}
	.st40{fill:#F9D1E1;}
	.st41{fill:#F6BFD4;}
	.st42{fill:#FBD4E4;}
	.st43{fill:#FDE3EE;}
	.st44{fill:#F5BFD5;}
	.st45{fill:#F7C6DA;}
	.st46{fill:#FCD5E4;}
	.st47{fill:#F0C0D4;}
	.st48{fill:#FAD6E5;}
	.st49{fill:#F6BFD6;}
	.st50{fill:#F4C4D8;}
	.st51{fill:#F7C9DC;}
	.st52{fill:#F8C6DB;}
	.st53{fill:#F6C4D9;}
	.st54{fill:#F8C5D9;}
	.st55{fill:#FACDE0;}
	.st56{fill:#F9CFE1;}
	.st57{fill:#F9D2E1;}
	.st58{fill:#F9CFE0;}
	.st59{fill:#FAD9E6;}
	.st60{fill:#FCE6EE;}
	.st61{fill:#F4C2D7;}
	.st62{fill:#F9CCDD;}
	.st63{fill:#F8CBDD;}
	.st64{fill:#FDF9FA;}
	.st65{fill:#F8D2E1;}
	.st66{fill:#F4B8D1;}
	.st67{fill:#F4B8D0;}
	.st68{fill:#FDF4F7;}
	.st69{fill:#FDF9FB;}
	.st70{fill:#FBEDF3;}
	.st71{fill:#FEFEFE;}
	.st72{fill:#FEF8FB;}
	.st73{fill:#F1B5CE;}
	.st74{fill:#F3B8D1;}
	.st75{enable-background:new    ;}
</style>
<path class="st0" d="M0.1,99.5c0-32.2,0-64.3-0.1-96.4C0,0.6,0.6,0,3.1,0C67.7,0.1,132.4,0.1,197,0c2.5,0,3.1,0.6,3.1,3.1
	c-0.1,64.6-0.1,129.3,0,193.9c0,2.5-0.6,3.1-3.1,3.1c-64.6-0.1-129.3-0.1-193.9,0c-2.5,0-3.1-0.6-3.1-3.1
	C0.1,164.5,0.1,132,0.1,99.5z"/>
<path class="st1" d="M172.9,101.1c2.2,3,5.6,4.6,8.3,7c1.1,1,2.2,2,3.4,3s1.5,2.7,0.6,4c-0.7,1.2-1.6,2.6-3.9,2.3
	c-3.1-0.5-5.5-2.2-8.3-3.2c-4-0.4-4.9,2.5-6,5.3c-0.4,1.1-0.9,2.2-1.4,3.2c-3.6,2.9-6.3,0.3-9.1-1.4c-0.2-0.2-0.5-0.5-0.6-0.8
	c0-0.1,0-0.2,0-0.4l0.1,0.2c0.1,0.5-0.4,0.7-0.7,1.1c-0.3,0.5-0.8,0.8-1.3,1h-0.6l-0.5-0.3c-0.1-0.4-0.3-0.7-0.4-1.1
	c-0.5-0.8-1-1.5-1.7-2.1c-0.6-0.1-0.9,0.3-1.3,0.7l-0.5,0.6c0,0,0,0.1,0.1,0.1c0.3-0.2,0.7-0.4,1.1-0.5c0.4-0.1,0.9-0.7,1.2-0.6
	c0.4,0.4,1,1.3,1.3,1.8c0.1,0.4,0.4,0.8,0.5,1.2l0.6,0.1c0,0.2,0.1,0.1,0.2,0.3c0,0.4-0.1,1-0.1,1.5c0,0.6-0.3-0.4-0.3,0.2
	c0-0.8,0.1-0.1,0.1-0.9c0-0.5,0.2-0.6,0.2-1.1c0.1-0.2,0.9-0.6,1.1-0.8c0.5-0.1,0.1,1.2,0.5,1.5c1.1,1.2,2,2.6,2.9,3.9
	c1.1,1.5,1.5,3.2-0.2,4.3c-2.1,1.4-1.5,3.4-1.6,5.3c-0.2,0.4-0.5,0.8-1,0.9c-3,0.1-5.9-0.8-8.8-1c-0.2,2.8,1.9,5.1,1.6,8
	c-0.2,1.6,0.4,3.3-0.2,4.9c-0.8,2.2-2,2.3-3.6,0.8c-1.4-2.7-1.4,1.6-2.5,0.5c-3-1-4.1-4.1-6.5-5.8c-1.7-1.2-2.7-4.3-5.6-2.2
	s-2.4,4.7-0.6,7.3c0.1,0.4,0.1,0.9-0.1,1.3c-1.7,1.3-4.4-0.3-5.8,1.9c-0.1,0.2-0.3,0.3-0.4,0.5c-0.3,0.3-0.7,0.5-1.1,0.7
	c-1.7,0.7-2.7,2.2-3.8,3.5c-5.8,8-11.6,16.1-18.6,23.1c-1.6,1.6-3.4,3-5.3,4.2c-1,1.7-2.3,3-4,4c-0.5-0.6-0.5-1.5,0-2.1
	c-0.2-1.5,0.7-3.6-1.9-4c-4.3-3.9-4.2-5.6,0.9-11.3c2.2-3.6,0.6-6.6-3.6-6.8c-1.3-0.1-2.5,0.7-3.8,0.8c-0.9,0-1.9-0.2-2.7-0.6
	c-0.4-0.2-0.8-0.4-1.2-0.6c-1-0.6-2-1.2-2-2.6c1-2.8,0.1-4.5-2.8-5c-1.3-0.5-2.5-1.2-3.6-2c-3.2-1.7-5.6-4.9-9.7-4.4
	c-1.5,0.2-1.8-1.2-2.3-2.2c-1.3-2.8-3.7-4.6-6-6.6c-1.5-1.4-3.6-1.8-5.5-1.1c-4.7,1.5-6.2,0.2-6.4-4.6c0.1-1.8,0.4-3.6,1-5.4
	c0.3-0.6,0.8-0.1,0.2-0.7c-0.2-0.2-0.2-0.2-0.2-0.4c0,0.3-0.3,1.1-0.5,1l-0.5,0.3c-0.1,0.1-0.4-0.2,0-0.7c-0.4,0.6-1.2-0.6-1.7-1.1
	c0,0.1-0.2,0.7-0.5,0.1c-1.3-2.5-0.6-1.1-0.9-2c-1.2-3.5-3.4-6.5-4.7-9.9c-1.1-2.8-2.6-2.9-5-1.5c-1.6,1-2.9,2.9-5.2,2.3l-1.7-3
	c-0.5-2.9,2.5-3.9,3.5-6.1c0.7-1.6,2-2.9,2.4-4.8c0.1-0.4,0.2-0.8,0.3-1.2c0.1-0.4,0.3-0.7,0.6-1c1-0.4-0.2-0.7-0.1-1.1
	c-0.1-0.4-0.1-0.8-0.1-1.2c0-0.8,0-1.6-0.1-2.4c0-0.4,0-0.9,0.1-1.3c0.5-2.5-0.1-5.1,0.8-7.5c0.2-0.4,0.6-0.7,1.1-0.8
	c0.5,0.1,0.9,0.3,1.1,0.7c1.3,3.8,0.3,7.7,0.4,11.6c0,0.6,0,1.2,0,1.7c0.1-0.5,0.1-1,0-1.5c0-1.2,0.1-2.4,0.1-3.6
	c0-1.9,0.1-3.8,0.1-5.7c0.5,0.8,1,1,1.3,1c1.2,0.3,2.8-0.8,3.6-2.9c0.2-1.3-0.9-1.7-1.5-2.5c-2.5-3.4-2.5-6.9-0.2-10.4
	c1.9-1.2,2.3,0.4,2.6,1.6c0.3,1,0,1.8,1.7,1.3c2.1-0.7,0.3-1.5,0.3-2.1c-0.1-1.2-1.3-1.8-2-2.7c-0.4-2.3,2-2.2,3.1-3.2
	c3.2-3,7.3-5,10-8.5c0.3-0.3,0.7-0.6,1.1-0.9c1.7-0.6,3.5-1.5,5.2-0.2c0.5,0.1,0.7,1,1.3,0.7c0.7-0.3-0.1,0.3-0.2-0.4
	c-0.3-0.3-0.5-0.5-0.8-0.8c-0.2-0.3-0.6-0.6-0.9-0.9c-3.2-3-6.5-5.8-2.7-10.7c0.9-1.1-0.4-2.8-0.2-4.3v-3c2.8-2.7,5.5,1,8.3,0
	l0.5-0.4c0.4-0.2,0.8-0.3,1.2-0.3c1.3,0.1,2.6,0.2,3.9,0.4c0.3,0.2,0.6,0.3,0.9,0.4c2.4,0.5,4.7,3.4,6.8,1.9
	c2.1-1.5-1.5-3.6-1.2-5.7c0-0.8,0.2-1.6,0.6-2.4c-0.1-1.4,0.3-2.8,1.1-3.9c0.4-0.7,1.2-1.1,2-1c1,0,2-0.4,2.5-1.3
	c1.5-2.6,3.4-1.8,5.4-0.7c2,1,3.9,2.4,5.3,4.1c0.5,0.4,1,0.8,1.6,1.2c1.4,0.8,3.8,0.3,4.3,2c1.4,4.8,3.1,2.1,4.8,0.4
	c2.9-2.9,5.9-5.7,8.8-8.7c1.3-1.1,2.9-2.7,4.2-0.9c1.7,2.2,5,4,3,7.7c-1.1,1.8-2.3,3.5-3.4,5.3c-0.4,0.5,0.1-0.2-0.3,0.4
	c-0.4,0.5-0.9,1.3-1.4,2c0.7-0.5,1-1.4,1.7-2c4.9-5.4,5.7-5.6,10-3c2.3,2.3,5.4,4.1,6.2,7.7c0.1,1.3-0.3,2.6-1,3.8
	c-0.9,1.4-2,2.6-3.3,3.7c1.1-1,2.6-1.5,4.1-1.3c2.5,0.5,6.1,6.2,5.8,9.9c-0.2,2.7,0.8,2.5,2.4,1.6c2.4-1.4,4.8-2.9,7.3-4.2
	c0.6-0.2,1.3,0,1.8,0.3c0.5,0.1-0.5,1.7,0.9,0.9c1,0.3,2,0.4,3,0.2c2-0.1,3.8,1.4,4,3.4c0.7,2.8,2,5.5,3.8,7.8
	c1.8,2.1,1.6,4.4,0.9,6.8c-0.4,0.6,0.2-0.1-0.2,0.4c-0.2,0.3-0.4,0.5-0.7,0.6c0.3,0.1,0.3-0.3,0.6-0.4c0.5-2.6,2.2-4.8,4.7-5.8
	c3.3-3.3,4.1-0.5,5,2c0.1,2,2.1,1.1,3,2c0.9,0.4,1.3,1.5,0.9,2.4c-0.1,0.2-0.3,0.5-0.5,0.6c-3.2,3-1.2,4.6,1.6,6
	c0.5,0.6,1.4,0.4,2,1c0,0.3,0,0.7,0.1,1c-1.2,0.6-1.9,1.7-2.1,3l-2.1,2C169.5,96.2,171.7,98.5,172.9,101.1z"/>
<path class="st2" d="M122,153h1l0,0c0.1-0.9-2.4-2.6,0.7-2.6c1.8,0,3.5,0.4,5.3,0.6c0.4,0.1,0.9,0.4,1.3,0.4l0.1-0.4
	c-0.1,0.1-0.3,0.2-0.4,0.2c-0.4-0.4-0.7-0.7-1-1.1c-3.9-3.4-3-8.2,1.8-10.2c1.3-0.6,1.8,0.3,2.4,0.9c2.9,3.1,5.9,6.2,8.8,9.2
	c2.3,3.7,1.6-1.9,3-1c0.8,0.4,2.1,2.6,2.1-0.4c0.1-4.2,0.4-8.5-2.8-12c-0.4-0.5-1.2-1.4-0.5-2.1c0.5-0.5,1.2,0.2,1.8,0.4
	c3.4,1.1,7.1,0.5,10.4,2.1l0,0c0-1.2-0.4-2.3-1.1-3.2c-0.8-1.4-0.3-2.3,1.1-2.6c3.7-0.8,2.7-2.4,0.8-4.3c-1.1-1-1.8-2.4-1.9-3.9
	c-0.3-0.2-0.4-0.6-0.3-0.9c0.3-0.4,0.6-0.8,0.8-1.3c0.1-0.3,0.3-0.6,0.6-0.7c3,0.7,5.2,4.7,8.9,2c0.5-1,1.7-1.7,1-3
	c-0.1-2.2,1.5-3.9,2.3-5.7c1.2-2.7,3,0.6,4.7,0.7c0.4,4.7-1.8,8.7-3.9,12.7c-1.3,2.5-2.5,4.8-1.3,8c0.7,1.7,0.1,3.9,0.2,5.9
	c0.2,1.6-0.9,3.2-2.5,3.4c-0.1,0-0.2,0-0.3,0c-5.4,0.8-7.2,4.9-8.1,9.4c-1.4,6.8-5.2,11.3-11.8,13.2c-4.2,1.2-7.7,2.7-9,7.4
	c-0.8,2.8-3.3,3-5.7,1.8c-3.4-1.6-5.8-1.1-7.9,2.4s-5.8,2.9-9.1,2.5c-2.2-0.3-3.6,0-5.1,1.8c-2.4,2.7-6,3.4-9.5,2.8
	c-1.6-0.3-3.3-0.4-4.9-0.4c6.6-7.5,13.6-14.7,19.5-22.8c1.3-1.8,1-5.3,4.5-5.2C119.6,156,121,154.6,122,153z"/>
<path class="st2" d="M115,35c0.3-1,1.6-2.7,0.6-3.1c-2.4-0.9-2-3.6-3.7-4.5c-0.6-0.3-1.9,1-2.9,1.6c-0.5,0.6-1.4,0.6-2,0l0,0
	c3.8-5.4,9.1-9.1,14.7-12.3c2.2-1.2,4.3-2.5,6.3-4c6.5-4.9,18.4-2.3,23.1,1.6c9.8,8.2,10.8,24.7,7.1,34.9c-1.3,3.5-1.6,7.3-3.2,10.7
	c-1.8-1.8-3.9-0.1-5.8-0.5c-1.4,0-1-3-3.1-1.8c-3.1-0.2-6.3-0.3-9-2.1c-4.5-3-4.6-6.4-0.2-10.6c1.2-1.2,2.9-1.8,3.9-3.2
	c-1.8,0.8-3.8,1.2-5.6,2.1c-2.3,1.1-4.4,3.5-7.3,1.2c-1.3-2.9-4.4-4.3-6.1-7c-0.2-0.4-0.2-0.9,0-1.4c0.3-1,2.1-1.8,0.7-2.9
	c-1-0.7-2.1,0.4-3.1,0.9C116.6,36.4,116.6,36.4,115,35z"/>
<path class="st3" d="M81,165c2.6-1.4,5.1-1.8,7.9-0.1c4.5,2.8,4.6,2.6,1.1,7.1c-2.1,0.4-4.2,0.6-6.3,0.9c-3.4,0.5-5.7,2.1-6.8,5.5
	c-0.5,1.8-1.1,4-3.8,3.6l0,0c-0.5-0.4-1.1-0.6-1.5-1.1c-0.8-0.7-1.4-1.8-1.5-2.8c-0.1-0.5-0.2-1.1-0.4-1.6c-0.2-0.3-0.3-0.7-0.5-1
	s-0.5-0.5-0.8-0.7c-0.3-0.1-0.7-0.2-1-0.3c-0.5,0-1.1,0-1.6,0c-0.4,0-0.8-0.1-1.2-0.3c-0.6-0.2-1.2-0.4-1.8-0.6
	c-3.2-2.1-7-2.8-10.3-4.6c-1.6-1.9-3.8-1.5-5.8-1.6c-2.2-0.1-4.5,0.1-6.5-1.4v-3c0.7-5.8-2.1-9.3-7-11.8c-2.2-1.1-4.8-1.7-6-4.2l0,0
	c-2.1-2.9-3.3-5.9-1.7-9.6c1.7-3.9-2.3-6.2-3.3-9.3c-1.8-3.2-0.7-6.7-0.9-10c0.6-0.5,1.3-1,2-1.5c6.6-5.3,6.5-5.3,10.2,1.9
	c1.7,3.5,3.9,6.7,4.6,10.6h0.6c0.4,0.2,0.7,0.3,1.1,0.4c0.6,0.1,1.2,0,1.5,0.7c0.5,2.7-1.4,5.2-0.2,8.2c0.8,2.1,1.4,3,3.2,1.6
	c3.7-2.8,6.6-1.2,8.9,1.6c2,2.4,5.8,3.6,5.7,7.5c0,0.2,0.4,0.6,0.5,0.6c5.1-2.2,7.2,3.1,10.9,4.3c0.3,0.6,0.2,1.3-0.1,1.9
	c-0.2,0.4-0.5,0.7-0.8,1.1c-1.9,1.4-3.6,3-5.3,4.5c-0.2,0.3-0.5,0.4-0.8,0.2c0,0.1,0,0.1,0,0.1c0.5,0.1,0.6-0.5,1-0.5
	c2.6-2.4,5.7-4.2,9-5.3c5.1,1,5.6,1.9,3,6c-1,2.3,1.3,1.3,2,2h1c0.6,0.9,0,1.9-0.1,2.8C79.5,166,80.2,165.4,81,165z"/>
<path class="st4" d="M52,45c2,2.3,3.3,4.7,0.1,7.1c-1.7,1.3-1,2.5,0,3.7c1.3,1.5,3,2.6,3.8,4.4c0.3,0.4,0.6,0.7,1,1
	c0,1.7-0.8,1.7-2,1c-1.7-1.7-3.3,1.7-5,0c-0.2-0.2-0.3-0.4-0.5-0.6c0.2,0.2,0.4,0.4,0.5,0.5c0.1,1.2-0.5,2.4-1.5,3
	c-4.1,3-7.7,6.9-12.5,9.1c-0.2,1.2-1.2,1.6-2,2c-1,3.8-2.1,7.6,1,11c0.1,0.4,0.3,1.5-0.1,2.6c-0.6,1.5-2.4,2.9-3.9,2.3
	c-1-0.4-1.6-1.7-1.5-3.2c-0.2-0.4-0.6-0.9-0.9-0.9s-0.4,0.2-0.5,0.3c-0.8,0.8-2.1,0.9-3,0.3c-0.7-0.7-1-1.6-0.3-2.3
	c0,0,0.1-0.1,0.3,0.1c0.4-0.7,1.2-1.1,2-1c2.2-2.2,3.2-4.5,1-7.4c-1.1-1.4-0.6-2.8,1-3.7c3.5-0.6,2.2-3,2-5.1c-0.5-0.6-0.5-1.5,0-2
	h1c3.8-6.2,9.2-11.1,13-17.3C46.4,47,48.1,44.5,52,45z"/>
<path class="st2" d="M73,181.9c1.4-0.5,1.9-1.7,2.4-2.9c2.7-6.4,5.8-8.4,12.4-8.1c0.9,0,1.7,0.3,2.2,1.1c-0.2,0.4-0.5,0.8-0.8,1.2
	c-3.9,4.4-3.9,4.4-1.2,9.7c-3.3-0.1-6.4,1.5-9.8,1.1C76.3,183.8,74.4,183.7,73,181.9z"/>
<path class="st5" d="M22.1,128c5.8,4.7,5.9,4.7,3.3,12.4c-0.9,2.6,1.8,4.2,1.7,6.6c-0.9-0.3-1.7-1.1-2-2c-1.4-4.2-5.4-5.6-8.6-7.8
	c-1-0.7-2.4-0.7-2.4-2.4s0.3-2.9,2-3.6C18.1,130.2,20.1,129,22.1,128z"/>
<path class="st5" d="M27.1,147c3.5,1.8,7.1,3.1,10.3,5.6c3.8,3,4.6,5.4,2.7,10.4c-1.3-3.6-5-5.2-7-8.2c-1.1-1.5-3-0.8-4.6,0
	c-1.3,0.6-2.8,1.8-3.9-0.1c-1-1.7-0.5-3.1,1.2-4.2C27.1,149.7,27.1,148.3,27.1,147z"/>
<path class="st6" d="M70,175c0,0.3,0,0.7,0,1c0.3,0.3,0.6,0.7,1,1c-0.1,1.4,0.3,2.8,1,4c0.2,0.2,0.3,0.4,0.2,0.7S72.1,182,72,182
	c-1.8-0.9-3.3-2.3-4.3-4c-2.5-3.6-5.3-3.6-8.9-2c-4.1,1.9-5.3,1.2-5.7-3.3c-0.3-4-3.1-2.4-5.1-2.8c1.1-3.3,3.1-2,5-1
	c4.3-0.4,7.5,2.2,11,4c0.3,0.4,0.6,0.7,1,1h1c0.5-0.6,1.4-0.6,2,0l0,0c0.3,0,0.7,0,1,0L70,175z"/>
<path class="st4" d="M107,29h2c-3.2,4.2-7.4,7.6-11,11.5c-1.6,1.8-3.6,0.3-3.3-0.7c1.2-4.5-3-3.4-4.7-4.9c4-2.5,8.5-3.2,13-4
	C103.7,29.2,105.3,29,107,29z"/>
<path class="st7" d="M73,36c0,2.4,1,4.6,2.7,6.2c0.8,0.8,1.2,1.7,0.2,2.5s-1.7,2.7-3.2,1.5C70.3,44.5,67,44.5,65,42h-0.5
	c-0.3-0.1-0.6-0.3-0.9-0.6c-0.4-0.3-0.8-0.7-1.1-1.1c-0.4-0.4-0.8-0.8-1.1-1.2c-0.5-0.5-0.7-1.3-0.7-2c0.3-0.5,0.9-0.7,1.3-1
	c1-1,1.4,0,1.7,0.6c2.9,5.5,4.3,5.6,8,0.9C72.2,37,72.6,36.5,73,36z"/>
<path class="st8" d="M25,86v2.1c0.1,3.1,1.5,5.9,2,9v1c0.6,0.5,0.6,1.4,0,2l0,0v1c0.2,0.2,0.3,0.4,0.2,0.7c-0.1,0.2-0.1,0.3-0.2,0.3
	l0,0c-0.3,0.3-0.7,0.7-1,1c-1,0.7-2.2,1.1-3.4,1.1c-1,0.1-2-0.4-2.6-1.1c4.6-2,4.9-4.1,1.4-8.1c-0.6-0.8-1.4-1.4-2.1-2.1
	c-1.6-1.7-1.3-3.1,0.9-3.6C22.1,88.6,23.7,87.5,25,86z"/>
<path class="st3" d="M23.1,103l3-1c0.4,0.3,0.7,0.6,1,1c0.5,4-2.6,6.3-4.5,9.2c-0.7,1-2,1.7-2.5,2.9c-1.7-0.8-2.1-2.6-2.9-4
	c-1.4-2-0.2-3.3,1.3-4.5S21.6,104.3,23.1,103z"/>
<path class="st9" d="M45,50c-2.6,7-7.7,12.1-13,17c-0.9-3.8,4.1-5.4,3.3-9.2c-0.1-0.5,1-0.8,1.7-0.7c4.3,0.8,4-3.3,3.4-4.6
	c-1.8-4.1,0-3.4,2.6-2.7C43.7,50,44.3,50,45,50z"/>
<path class="st10" d="M53,168.9c-1.7,0.3-3.6-0.8-5,1c-3.1,2.7-5.2,2.4-6.8-0.8c-0.4-1-0.8-2.1-1.2-3.2c3.1,0,6.2,0,9.3,0
	C51.5,165.9,52.9,166.6,53,168.9z"/>
<path class="st10" d="M23.1,103c-0.1,2.3-1.7,3.4-3.6,4.2c-1.7,0.7-2.7,1.8-2.4,3.8c-2.5-1.3-3.6-3.3-2.8-6c0.9-3,3.7-1.8,5.8-2.1
	L23.1,103z"/>
<path class="st11" d="M149,59c0.9,0,1.9-0.4,2.6-1c2.7-1.9,3.4-0.5,3.4,2.1c-0.2,3.5,1.4,6.6,2,10c0.3,0.2,0.4,0.5,0.3,0.7
	s-0.2,0.3-0.3,0.3c-1.4-2.8-5.1-4.3-4.4-8.4c0.2-1.5-2-1.7-3.5-1.7C148.5,60.5,148.4,59.7,149,59C148.9,59.1,148.9,59.1,149,59z"/>
<path class="st2" d="M29,74c-0.6,1.2-1,2.1-0.1,3.5c3.3,4.8,3.1,5.3-2,7.5c0.1-1.9-0.3-3.9-1.2-5.6C24.3,75.7,24.9,74.9,29,74z"/>
<path class="st12" d="M103,31c-4.4,1-8.1,4.7-13,4l-1-1c-0.8-1.3-1.2-2.7,0-4C93.6,32.1,98.3,30.6,103,31z"/>
<path class="st13" d="M172.9,101.1c-4.8-4.1-4.9-4.6-2-8.1C172.9,95.3,175,97.7,172.9,101.1z"/>
<path class="st14" d="M62,42h-1l0,0c-0.7,1.3-0.6,4.4-3.1,1.4C56.2,41.5,54,42.1,52,42l1-1c0.4-0.5,1-0.8,1.6-1
	c0.8-0.2,1.6-0.4,2.4-0.7c0.6-0.2,1.2-0.3,1.9-0.3c0.4,0,0.9,0,1.3,0c0.7,0.1,1.3,0.3,1.8,0.7c0.3,0.3,0.5,0.7,0.6,1.2
	C62.6,41.3,62.4,41.7,62,42z"/>
<path class="st15" d="M89,30v4c-2-1.3-3.7-3-5-5c1.3,0,1.8-1.3,2.7-1.6C89,26.7,90.1,27.5,89,30z"/>
<path class="st14" d="M156.9,71.1L157,70c2,1,3.2,3.6,6,3l-5,6l0,0C158.2,76.3,157.9,73.6,156.9,71.1z"/>
<path class="st9" d="M76,31.1c-0.4,0.8-1.2,0.9-2,1c-0.1-1.5-0.1-3,0-4.5c0.2-1.4,0.8-2.7,2.5-2.1c1.4,0.5,1.3,1.7,0.7,2.9
	C76.8,29.3,76.4,30.2,76,31.1z"/>
<path class="st16" d="M53,34c1-2.3,3.1-2,5-2c0.3,0.2,0.5,0.5,0.7,0.9c0.1,0.4,0.1,0.7,0.1,1.1l-0.1,0.5L58.4,35
	c0.1,0.3-1,0.4-0.2,0.9l0.3,0.4c0.2,0.3,0.2,0.7,0.3,1.1c0,0.4-0.1,0.8-0.2,1.1c-0.1,0.4-0.4,0.7-0.8,0.8c-0.4,0.1-0.8,0-1.1-0.2
	c-0.5-0.6-0.9-1.2-1.2-1.9c-0.2-0.3-0.4-0.7-0.6-1c-0.4-0.5-0.8-0.9-1.2-1.3C53.4,34.7,53.1,34.4,53,34z"/>
<path class="st17" d="M31,67v2c-0.3,0-0.7,0-1-0.2c-1.3-0.8-3.4-0.3-3.9-2.3c0-0.5,0.2-0.9,0.6-1.2C28.6,64.8,29.9,65.8,31,67z"/>
<path class="st18" d="M172.9,91c-1.2-2.3,0.1-2.9,2.1-3c1,0,1.9,0.4,2.5,1.2c0.6,0.7,1.8,1.3,0.7,2.3c-0.7,0.7-1.6-0.1-2-0.7
	C175,89,174,89.9,172.9,91z"/>
<path class="st19" d="M58,34v-1c0.3-0.3,0.6-0.8,1-1.1c1.9-1.8,3-0.6,4,1.1c0.2,0.1,0.3,0.4,0.2,0.6c-0.1,0.2-0.2,0.3-0.2,0.3
	c-1.8-1.2-2.7,0.5-4,1l-0.5-0.2C58.4,34.5,58.2,34.3,58,34z"/>
<path class="st20" d="M54.1,34.1c0.9,0.3,1.6,1.1,1.9,2c-0.3,0.3-0.4,0.6-0.5,1c-0.1,0.2-0.2,0.3-0.2,0.5c-0.2,0.3-0.4,0.6-0.7,0.9
	c-0.4,0.6-0.9,1.2-1.6,1.6c-1.5-1.1-0.8-2.6-1-4C52.7,35.4,53.4,34.7,54.1,34.1z"/>
<path class="st21" d="M171,77c-1.2-0.1-2.7,0.4-3.7-0.4c-1.5-1.2-0.2-1.4,0.7-1.5l0,0c0.3,0.4,0.6,0.7,1,1
	C169.8,75.9,170.6,76.3,171,77z"/>
<path class="st1" d="M53,40c0.1-0.8,0.1-1.6,0.9-2c0.4,0,0.8,0.2,1.1,0.4c0.3,0.3,0.5,0.6,0.6,1c0.1,0.6-0.1,1.2-0.5,1.6H53
	C53,40.7,53,40.4,53,40z"/>
<path class="st22" d="M54.1,34.1c0.1,1-0.5,1.9-1.5,2c-0.2,0-0.3,0-0.5,0c-0.2-0.8,0.2-1.7,0.9-2.1L54.1,34.1z"/>
<path class="st23" d="M62,36l-1,1c-0.2,0.6-0.7,1.1-1.3,1.3H59c-0.3-0.3-0.5-0.7-0.5-1.1c0-0.2,0-0.4,0-0.6l0.4-0.5L62,36z"/>
<path class="st24" d="M90,186.9v2.1c-0.2,0.1-0.5,0.2-0.7,0.2C88.8,188.4,89.1,187.4,90,186.9L90,186.9z"/>
<path class="st18" d="M174.9,87c-0.8,0.1-1.6-0.3-2-1C173.8,86.1,174.6,86.1,174.9,87z"/>
<path class="st1" d="M169,76l-1.1-1L169,76z"/>
<path class="st25" d="M59,35v1l0,0c-0.3,0.4-0.7,0.5-1,0l0,0c-0.2-0.3-0.2-0.7,0-1l0,0C58.3,34.7,58.7,34.7,59,35L59,35z"/>
<path class="st26" d="M63,34c0-0.3,0-0.6,0-1C63.7,33.3,64,33.7,63,34z"/>
<path class="st2" d="M72,181.9v-1l1,1H72z"/>
<path class="st27" d="M59,32l-1,1v-1H59z"/>
<path class="st4" d="M128,45c1.8,0.2,3.6-0.3,5.1-1.4c2.5-2,5.7-2.5,8.7-3.4c0.8-0.2,2-0.5,2.3,0.2c0.5,0.9-0.6,1.3-1.3,1.7
	c-1.7,1-3.3,2.2-4.8,3.5c-1.6,1.5-4.1,3-3.3,5.6c0.9,2.9,3.6,4.4,6.4,4.7c2,0.2,3.9,0.8,5.8,1.1c0.6,1.9-1.3,1.3-2,2
	c-2.1,2.4-5.4,3-7.7,5.1c-1.2,1.3-3.2,1.4-4.6,0.3c-1.4-1.2,0-2.3,0.7-3.4c0.9-1.4,0.7-2.4-0.8-3.3c-0.6-0.4-1-0.8-1.3-1.4
	c-3-5.1-2.9-5.1-7.4-1.7c-0.4,0.3-0.8,1.3-1.5,0.4c-0.2-0.2,0.2-0.9,0.3-1.3C124,50.5,127.8,48.9,128,45z"/>
<path class="st7" d="M115,35c0.8,1.2,1.6,0.8,2.4,0.1s1.4-1.4,2.1-2c1.8-1.5,4.4-1.8,5.8-0.3c1.2,1.2-1.2,2.6-2,4
	c-0.3,0.5-0.9,0.9-1.4,1.3c-1.9-1.8-3.7-1.7-5.6,0.1c-1.1,1-2.3,1.9-3.4,2.9c-0.9,0.2-1.4,0-1-1C112.2,37.9,113.8,36.6,115,35z"/>
<path class="st28" d="M34.1,76.1c0.3-0.9,1.1-1.7,2-2c3.3,0.9,4.8,4.2,2.9,6.8c-0.9-1.4-2.5,1.1-3.5-0.8
	C34.9,78.7,35.6,77,34.1,76.1z"/>
<path class="st29" d="M27,97c-2.1-2.7-4.2-5.3-2-9h3C27.7,91,29,94.2,27,97z"/>
<path class="st30" d="M73,156c-2.5,3.4-6.7,4-10,6l0,0c1.6-2.4,3.6-4.4,6-6l0,0l1-2L73,156z"/>
<path class="st31" d="M81,165c-1.3,1.4-0.8,5.3-2.9,4.4c-2.7-1.2,0.6-3.5,0.9-5.4L81,165z"/>
<path class="st32" d="M122,153c0.5,3.2-0.9,4.5-4,4C118.1,154.8,119.8,153.1,122,153z"/>
<path class="st33" d="M145,59l2-2c1.6-0.3,1.6-0.3,2,2v2c-1.5,1.3-2.1-0.4-3-1l0,0L145,59z"/>
<path class="st34" d="M145,149c-0.1,0.3-0.2,0.6-0.4,0.9c-0.9,0.9,0,2.4-1.2,3.2c-0.4-1-0.9-2-1.3-3.1l0.4-0.3
	c1.4-0.9-1.2-2.5,0.5-2.9C143.3,146.6,144.3,148.2,145,149z"/>
<path class="st35" d="M55,62c0.8,0.1,1.6-0.3,2-1c1.4,0.7,2.9,2.2,1.4,3.3C56.7,65.6,55.9,63.2,55,62z"/>
<path class="st36" d="M112,40l1,1c-1.1,1.8-2.6,3.3-4.4,4.4C108.5,42.9,110.9,41.9,112,40z"/>
<path class="st37" d="M158,111h3c0.1,1.1,2.1,1.7,1,2.7s-2.4,0.4-3.1-1C158.6,112.1,158.3,111.6,158,111L158,111z"/>
<path class="st38" d="M158,79c-0.7,1.3-1.4,2.6-3.1,2.7c-0.1,0-0.3-0.3-0.3-0.3C155.1,79.9,156.5,79,158,79z"/>
<path class="st39" d="M78,164c-0.9,0.2-1.7,1.4-2.6,0.4S75,162.6,76,162L78,164z"/>
<path class="st40" d="M151,117l-0.1,3H150l-0.4-0.1c-0.2-0.1-0.4-0.3-0.5-0.5L149,119c-0.1-1,0.5-1.9,1.5-2
	C150.7,117,150.8,117,151,117z"/>
<path class="st41" d="M166,119c3.6,2.3-0.5,2.1-1,3C164.9,120.9,165.6,120,166,119z"/>
<path class="st42" d="M81.7,53.6c-0.4-0.2-0.5-0.6-0.4-1c0,0,0,0,0-0.1c0.2-0.4,0.7-0.9,1-0.8c0.5,0,0.6,0.7,0.5,1.2
	S82.6,53.8,81.7,53.6z"/>
<path class="st23" d="M62,42v-1c0.4-0.3,0.4-1,1-1l1,1c0.4,0.3,0.6,0.7,1,1l0,0C64,43.8,63,42.2,62,42z"/>
<path class="st43" d="M148,121c-0.1,0.7-0.1,1.6-1.2,1.5c-0.2,0-0.3-0.2-0.3-0.3C146.4,121,147.3,121.2,148,121L148,121z"/>
<path class="st26" d="M42.4,83.5c0.5-0.1,0.9,0.2,1,0.6l0,0c0.2,0.7-0.4,0.8-0.8,0.8c-0.3,0-0.8-0.1-0.8-0.3
	C41.5,84.1,41.8,83.8,42.4,83.5z"/>
<path class="st44" d="M131,152c-0.8,0.1-1.6-0.3-2-1c0-0.3,0-0.6,0-0.9l2,1c0.3,0.2,0.4,0.4,0.3,0.6S131.1,152,131,152z"/>
<path class="st45" d="M87.1,102.2c0.4,0.2,0.5,0.5,0.2,0.8c-0.2,0.2-0.5,0.3-0.8,0.4c-0.1-0.3-0.3-0.6-0.2-0.8
	S86.8,102.3,87.1,102.2z"/>
<path class="st46" d="M154.5,74.5c0.3-0.1,0.6-0.3,0.8-0.2c0.2,0.2,0.4,0.5,0.4,0.8c-0.1,0.4-0.4,0.5-0.7,0.2
	C154.8,75.1,154.6,74.8,154.5,74.5z"/>
<path class="st47" d="M144.1,105.3c-0.5,0.8-1.3,0.7-2.1,0.6C142.6,105.1,142.9,103.6,144.1,105.3z"/>
<path class="st48" d="M148,121c0-0.8,0.1-1.6,1-2l0,0c0.3,0.4,0.6,0.7,1,1l0,0C149.6,120.9,148.8,121,148,121z"/>
<path class="st49" d="M147.5,108.5c0.3,0.1,0.5,0.3,0.8,0.5c0.3,0.3,0.2,0.7-0.2,0.7c-0.3,0-0.6-0.1-0.8-0.4
	C147.2,109.2,147.4,108.8,147.5,108.5z"/>
<path class="st50" d="M68.8,149.9l-0.2,0.4l-0.4-0.5c0.1-0.1,0.3-0.2,0.3-0.2S68.7,149.8,68.8,149.9z"/>
<path class="st29" d="M27.1,100v-2C28.1,98.7,28.1,99.3,27.1,100z"/>
<path class="st18" d="M144.7,113.2c-0.1,0-0.3,0.1-0.3,0.1c-0.1-0.1-0.2-0.2-0.1-0.4c0.1-0.4,0.3-0.4,0.5-0.1
	C144.8,112.9,144.7,113.1,144.7,113.2z"/>
<path class="st51" d="M139.3,117.7c0.1,0,0.3,0,0.3,0c0.1,0.1,0.1,0.3,0.1,0.4c-0.2,0.4-0.4,0.4-0.5-0.1
	C139.2,118,139.3,117.8,139.3,117.7z"/>
<path class="st16" d="M161,111c0.2-0.5,0.9-1,1-0.8C162.5,111.4,161.3,110.7,161,111z"/>
<path class="st37" d="M170.3,89.6c-0.1,0.1-0.3,0.2-0.4,0.1c-0.4-0.1-0.5-0.3-0.1-0.5c0.1-0.1,0.3,0,0.4,0.1S170.3,89.5,170.3,89.6z
	"/>
<path class="st52" d="M75.8,90l-0.2,0.4l-0.4-0.5c0.1-0.1,0.2-0.2,0.3-0.2S75.7,89.9,75.8,90z"/>
<path class="st29" d="M29.2,87.1L28.8,88H28C28.2,87.5,28.7,87.1,29.2,87.1z"/>
<path class="st53" d="M158,111l-0.4-0.4c0.1,0,0.2,0,0.3,0.1C157.9,110.7,158,110.9,158,111L158,111z"/>
<path class="st33" d="M146,60l-0.4,0.4c0-0.1,0-0.2,0.1-0.3C145.8,60.1,145.9,60,146,60z"/>
<path class="st35" d="M57,61l-1-1L57,61z"/>
<path class="st54" d="M65,49l0.4,0.4c-0.1,0-0.2,0-0.3-0.1C65.1,49.2,65,49.1,65,49z"/>
<path class="st55" d="M64,48l1,1l0,0L64,48z"/>
<path class="st56" d="M64,48l-0.5-0.4c0.1,0,0.2,0,0.3,0.1C63.9,47.7,64,47.9,64,48z"/>
<path class="st29" d="M27,103l-1-1c0.3,0,0.6,0,1,0V103z"/>
<path class="st29" d="M27,102c0-0.3,0-0.7,0-1C27.8,101.3,27.8,101.7,27,102z"/>
<path class="st57" d="M131,152c0-0.3,0-0.6,0-1c0.7,0.3,1.7,0.7,1.3,1.5S131.3,152.5,131,152z"/>
<path class="st58" d="M155.9,137l0.5,0.4c-0.1,0-0.2,0-0.3-0.1C156.1,137.2,156,137.1,155.9,137L155.9,137z"/>
<path class="st59" d="M123,153l0.4,0.4c-0.1,0-0.2,0-0.3-0.1C123.1,153.2,123,153.1,123,153L123,153z"/>
<path class="st60" d="M68,174h-2C66.7,172.9,67.4,172.9,68,174z"/>
<path class="st61" d="M63,162l-0.4,0.4c0-0.1,0-0.2,0.1-0.3C62.8,162.1,62.9,162,63,162z"/>
<path class="st60" d="M65,174l-1-1L65,174z"/>
<path class="st60" d="M70,175l-1-1L70,175z"/>
<path class="st60" d="M71,177l-1-1L71,177z"/>
<path class="st62" d="M49,61l1,1l0,0L49,61z"/>
<path class="st58" d="M49,61l-0.4-0.4c0.1,0,0.2,0,0.3,0.1C48.9,60.8,49,60.9,49,61z"/>
<path class="st63" d="M59,38l2-1l1,2c0.3,0.2,0.4,0.4,0.3,0.7C62.2,39.9,62.1,40,62,40h-2c-0.3-0.2-0.6-0.5-0.9-0.6L58.7,39
	C58.6,38.6,58.7,38.2,59,38z"/>
<path class="st1" d="M62,40c0-0.3,0-0.7,0-1l1,1l-1,1C62,40.7,62,40.4,62,40z"/>
<path class="st1" d="M65,42l-1-1L65,42z"/>
<path class="st64" d="M55.1,41L55,39c0.3-0.3,0.6-0.4,1-0.3c0.5,0.3,0.8,0.8,1,1.3C56.7,40.9,55.9,41,55.1,41z"/>
<path class="st65" d="M57,40l-1-1c0.2-0.3,0.6-0.3,0.8-0.2c0.1,0,0.1,0.1,0.2,0.2h1c0.3-0.5,0.7-0.5,1,0l0,0
	c0.2,0.2,0.3,0.4,0.2,0.7c0,0.2-0.1,0.3-0.2,0.3H57z"/>
<path class="st1" d="M61,42l-0.5-0.4c0.1,0,0.2,0,0.3,0.1C60.9,41.8,60.9,41.9,61,42L61,42z"/>
<path class="st66" d="M59,40c0-0.3,0-0.7,0-1l1,1H59z"/>
<path class="st21" d="M57,39h-1h-1.1l0,0c-0.5-0.6-0.5-1.4,0-2l0,0c0.2-0.3,0.6-0.3,0.9-0.1l0.1,0.1C56.9,37.4,57,38.2,57,39z"/>
<path class="st67" d="M59,39h-1c0-0.3,0-0.7,0-1c0.3-0.4,0.7-0.5,1,0l0,0V39z"/>
<path class="st63" d="M59,38h-1v-1c0.2-0.3,0.6-0.4,0.8-0.2c0.1,0,0.1,0.1,0.2,0.2V38z"/>
<path class="st68" d="M59,37h-1v-1h1V37z"/>
<path class="st69" d="M56.1,37H55l1-0.9C56,36.4,56,36.7,56.1,37z"/>
<path class="st70" d="M58,35v1C57.3,35.7,57.2,35.4,58,35z"/>
<path class="st71" d="M59,35h-1c0-0.3,0-0.7,0-1L59,35z"/>
<path class="st72" d="M55,37v2l-1-1L55,37z"/>
<path class="st1" d="M69,156l0.4,0.4c-0.1,0-0.2,0-0.3-0.1C69.1,156.2,69,156.1,69,156z"/>
<path class="st73" d="M106.2,128.1c-0.1,0.3-0.2,0.6-0.2,0.9l-1.8-0.1c0-2-0.1-4-0.1-5.9l0,0c0.7-0.6,1.3-0.6,1.9,0.1
	c0,0.3,0.1,0.5,0.2,0.8V128.1z"/>
<path class="st74" d="M150,120l-1-1L150,120z"/>
<g class="st75">
	<path d="M44.9,95h-2.1V75.5h8.2v1.8h-6.1v6.9h4.9V86h-4.9V95z"/>
	<path d="M55.3,95V75.5h2.1v17.7h5.5V95H55.3z"/>
	<path d="M75.7,95h-0.9l-0.8-1.9c-0.4,0.7-1,1.3-1.6,1.7c-0.7,0.4-1.4,0.6-2.2,0.6c-2.9,0-4.3-1.4-4.3-4.2v-3c0-2.8,1.4-4.2,4.3-4.2
		h3.5v-4.9c0-0.7-0.2-1.3-0.7-1.7s-1.1-0.6-2-0.6c-1.8,0-2.7,0.8-2.7,2.3v1.8h-2.1v-1.7c0-1.3,0.4-2.4,1.2-3.1
		c0.8-0.7,2-1.1,3.6-1.1c1.6,0,2.8,0.4,3.6,1.1c0.8,0.7,1.2,1.8,1.2,3.1V95z M73.6,85.9h-3.5c-0.8,0-1.4,0.2-1.7,0.6
		c-0.3,0.4-0.5,1-0.5,1.8v3c0,0.8,0.2,1.3,0.5,1.8c0.3,0.4,0.9,0.6,1.7,0.6c0.8,0,1.6-0.3,2.3-1c0.7-0.6,1.1-1.3,1.1-1.9V85.9z"/>
	<path d="M88.8,91.3V75.5h2.1v15.8c0,1.6,0.9,2.4,2.8,2.4c1.8,0,2.8-0.8,2.8-2.4V75.5h2.1v15.8c0,1.3-0.4,2.4-1.3,3.1
		c-0.8,0.7-2.1,1.1-3.7,1.1s-2.9-0.6-3.7-1.7c-0.8,1.2-2,1.7-3.7,1.7c-1.7,0-2.9-0.4-3.8-1.1c-0.8-0.7-1.3-1.8-1.3-3.1V75.5h2.1
		v15.8c0,1.6,0.9,2.4,2.8,2.4C87.9,93.7,88.8,92.9,88.8,91.3z"/>
	<path d="M104.2,95V75.5h2.1v17.7h5.5V95H104.2z"/>
	<path d="M122.8,91.3v-1.7h2.1v1.7c0,1.3-0.4,2.4-1.2,3.1c-0.8,0.7-2.1,1.1-3.7,1.1c-1.6,0-2.9-0.4-3.7-1.1
		c-0.8-0.7-1.3-1.8-1.3-3.1v-12c0-1.3,0.4-2.4,1.2-3.1c0.8-0.7,2-1.1,3.7-1.1c1.6,0,2.9,0.4,3.7,1.1c0.8,0.7,1.3,1.8,1.3,3.1v6.6
		h-7.8v5.4c0,1.6,0.9,2.4,2.8,2.4S122.8,92.9,122.8,91.3z M117.1,79.3v4.8h5.7v-4.8c0-1.6-1-2.4-2.9-2.4S117.1,77.7,117.1,79.3z"/>
	<path d="M140,91.3c0,2.8-1.7,4.2-5.1,4.2c-3.4,0-5.1-1.4-5.1-4.2v-2.5h2.1v2.7c0,0.7,0.2,1.3,0.8,1.7c0.5,0.4,1.2,0.6,2.2,0.6
		c1,0,1.7-0.2,2.2-0.6c0.5-0.4,0.8-0.9,0.8-1.6s-0.1-1.2-0.2-1.7c-0.1-0.4-0.5-0.8-0.9-1.3l-5.3-5.2c-0.6-0.6-1-1.2-1.3-1.8
		c-0.2-0.6-0.3-1.3-0.3-2.2c0-1.3,0.4-2.4,1.2-3.1c0.8-0.7,2.1-1.1,3.8-1.1c3.2,0,4.8,1.4,4.8,4.2v2.5h-2.1v-2.7
		c0-0.7-0.2-1.3-0.7-1.7c-0.5-0.4-1.2-0.6-2.1-0.6c-0.9,0-1.6,0.2-2.1,0.6s-0.7,1-0.7,1.6c0,0.7,0.1,1.3,0.2,1.7
		c0.1,0.4,0.5,0.8,0.9,1.3l5.4,5.2c0.6,0.6,1,1.3,1.2,1.8C139.9,89.6,140,90.4,140,91.3z"/>
	<path d="M154.9,91.3c0,2.8-1.7,4.2-5.1,4.2c-3.4,0-5.1-1.4-5.1-4.2v-2.5h2.1v2.7c0,0.7,0.2,1.3,0.8,1.7c0.5,0.4,1.2,0.6,2.2,0.6
		c1,0,1.7-0.2,2.2-0.6c0.5-0.4,0.8-0.9,0.8-1.6s-0.1-1.2-0.2-1.7c-0.1-0.4-0.5-0.8-0.9-1.3l-5.3-5.2c-0.6-0.6-1-1.2-1.3-1.8
		c-0.2-0.6-0.3-1.3-0.3-2.2c0-1.3,0.4-2.4,1.2-3.1c0.8-0.7,2.1-1.1,3.8-1.1c3.2,0,4.8,1.4,4.8,4.2v2.5h-2.1v-2.7
		c0-0.7-0.2-1.3-0.7-1.7c-0.5-0.4-1.2-0.6-2.1-0.6c-0.9,0-1.6,0.2-2.1,0.6s-0.7,1-0.7,1.6c0,0.7,0.1,1.3,0.2,1.7
		c0.1,0.4,0.5,0.8,0.9,1.3l5.4,5.2c0.6,0.6,1,1.3,1.2,1.8C154.8,89.6,154.9,90.4,154.9,91.3z"/>
</g>
<g class="st75">
	<path d="M66.3,103.2c-0.4,0-0.7,0-1,0.1s-0.6,0.2-0.8,0.4s-0.4,0.4-0.5,0.7s-0.2,0.6-0.2,1.1v12.8h3.7v0.8h-4.6v-13.1
		c0-0.3,0-0.5,0-0.8s0-0.5,0.1-0.8s0.2-0.5,0.3-0.7s0.3-0.4,0.6-0.6s0.6-0.3,1-0.4s0.9-0.1,1.4-0.1V103.2z"/>
	<path d="M68.1,119v-4.9c0-0.3,0-0.6,0.1-0.9s0.2-0.5,0.4-0.7s0.4-0.3,0.6-0.4s0.5-0.2,0.9-0.2h1.2v-3.1c0-0.4-0.1-0.7-0.3-0.9
		s-0.5-0.4-0.9-0.4c-0.4,0-0.7,0.1-0.8,0.4s-0.3,0.6-0.3,1l-0.9,0.1c0-0.3,0-0.6,0.1-0.9s0.2-0.5,0.4-0.8s0.4-0.4,0.6-0.5
		s0.5-0.2,0.9-0.2c0.3,0,0.6,0.1,0.9,0.2s0.5,0.3,0.6,0.5s0.3,0.4,0.4,0.7s0.1,0.5,0.1,0.8v7.9c0,0.3,0,0.6-0.1,0.9
		s-0.2,0.5-0.4,0.7s-0.4,0.3-0.6,0.4s-0.5,0.2-0.9,0.2H68.1z M70.2,118.2c0.4,0,0.7-0.1,0.9-0.4s0.3-0.6,0.3-0.9v-4.1h-1.2
		c-0.4,0-0.7,0.1-0.8,0.4S69,113.7,69,114v4.1H70.2z"/>
	<path d="M73.4,116.3h0.9v0.9c0,0.4,0.1,0.7,0.3,0.9s0.5,0.4,0.9,0.4c0.4,0,0.7-0.1,0.8-0.4s0.3-0.5,0.3-0.9v-1.5
		c0-0.3,0-0.5-0.1-0.7s-0.2-0.4-0.3-0.6s-0.3-0.4-0.5-0.6s-0.4-0.4-0.5-0.6c-0.2-0.2-0.4-0.4-0.6-0.7s-0.4-0.5-0.6-0.7
		s-0.3-0.5-0.4-0.8s-0.1-0.6-0.1-0.9V109c0-0.3,0-0.6,0.1-0.9s0.2-0.5,0.4-0.7s0.4-0.3,0.6-0.4s0.5-0.2,0.9-0.2
		c0.3,0,0.6,0.1,0.9,0.2s0.5,0.3,0.6,0.4s0.3,0.4,0.4,0.7s0.1,0.5,0.1,0.9v1h-0.9v-1c0-0.4-0.1-0.7-0.3-0.9s-0.5-0.4-0.8-0.4
		c-0.4,0-0.7,0.1-0.9,0.4s-0.3,0.6-0.3,0.9v1.2c0,0.3,0,0.5,0.1,0.7s0.2,0.4,0.3,0.7s0.3,0.4,0.5,0.6s0.4,0.4,0.5,0.6
		c0.2,0.2,0.4,0.5,0.6,0.7s0.4,0.5,0.6,0.7s0.3,0.5,0.4,0.8s0.1,0.6,0.1,0.9v1.4c0,0.3,0,0.6-0.1,0.8s-0.2,0.5-0.4,0.7
		s-0.4,0.3-0.6,0.5s-0.5,0.2-0.9,0.2c-0.3,0-0.6-0.1-0.9-0.2s-0.5-0.3-0.6-0.5s-0.3-0.4-0.4-0.7s-0.1-0.5-0.1-0.8V116.3z"/>
	<path d="M82.8,107.1V119h-0.9v-11.1h-1.1c-0.4,0-0.7,0.1-0.9,0.4s-0.3,0.6-0.3,0.9v9.9h-0.9v-18.3h0.9v6.7c0.2-0.1,0.3-0.2,0.5-0.2
		s0.4-0.1,0.7-0.1H82.8z"/>
	<path d="M87.6,105c0-0.4,0.1-0.7,0.2-1s0.3-0.6,0.5-0.8s0.5-0.4,0.8-0.5s0.7-0.2,1.1-0.2s0.8,0.1,1.1,0.2s0.6,0.3,0.8,0.5
		s0.4,0.5,0.5,0.8s0.2,0.6,0.2,1v1.3h-0.9V105c0-0.5-0.1-0.9-0.4-1.3s-0.7-0.5-1.3-0.5s-1,0.2-1.2,0.5s-0.4,0.8-0.4,1.3v3.5
		c0,0.1,0,0.2,0,0.3s0.1,0.2,0.2,0.4s0.2,0.2,0.4,0.3s0.4,0.1,0.7,0.1v0.8c-0.3,0-0.5,0-0.7,0.1s-0.3,0.2-0.4,0.3s-0.1,0.2-0.2,0.4
		s0,0.2,0,0.3v5.2c0,0.5,0.1,0.9,0.4,1.3s0.7,0.5,1.2,0.5s1-0.2,1.3-0.5s0.4-0.8,0.4-1.3v-5.2l-1.8,0.9l-0.5-0.7l4.6-2.2l0.5,0.7
		l-1.9,1v5.6c0,0.4-0.1,0.7-0.2,1s-0.3,0.6-0.5,0.8s-0.5,0.4-0.8,0.5s-0.7,0.2-1.1,0.2s-0.8-0.1-1.1-0.2s-0.6-0.3-0.8-0.5
		s-0.4-0.5-0.5-0.8s-0.2-0.6-0.2-1v-5.2c0-0.1,0-0.3,0-0.4s0-0.3,0.1-0.4s0.1-0.3,0.2-0.4s0.2-0.2,0.3-0.4c-0.3-0.2-0.5-0.5-0.5-0.7
		s-0.1-0.5-0.1-0.8V105z"/>
	<path d="M104.1,107.6c0,0.7-0.1,1.2-0.3,1.6s-0.5,0.7-0.8,0.9c0.1,0.1,0.3,0.2,0.4,0.4s0.3,0.3,0.4,0.5s0.2,0.4,0.3,0.7
		s0.1,0.6,0.1,1v2.9c0,0.3,0,0.5,0,0.8s0,0.5-0.1,0.8s-0.1,0.5-0.3,0.7s-0.3,0.4-0.5,0.6s-0.5,0.3-0.9,0.4s-0.8,0.1-1.3,0.1h-2.2
		v-12.9c0-0.3,0-0.5,0-0.8s0-0.5,0.1-0.8s0.1-0.5,0.3-0.7s0.3-0.4,0.5-0.6s0.5-0.3,0.9-0.4c0.3-0.1,0.8-0.1,1.3-0.1h2.2V107.6z
		 M101.5,109.7c0.6,0,1.1-0.2,1.3-0.6s0.4-0.9,0.4-1.7v-4.1h-1c-0.4,0-0.8,0-1.1,0.1c-0.3,0.1-0.6,0.2-0.8,0.4s-0.3,0.4-0.4,0.7
		s-0.1,0.7-0.1,1.1v4.1H101.5z M99.8,110.5v7.7h1c0.4,0,0.8,0,1.1-0.1s0.6-0.2,0.8-0.4s0.3-0.4,0.4-0.7s0.1-0.7,0.1-1.1v-3.2
		c0-0.8-0.1-1.4-0.4-1.7s-0.7-0.5-1.3-0.5H99.8z"/>
	<path d="M109.8,107.1v4.9c0,0.3,0,0.6-0.1,0.9s-0.2,0.5-0.4,0.7s-0.4,0.3-0.6,0.4s-0.5,0.2-0.9,0.2h-1.2v3.1c0,0.4,0.1,0.7,0.3,0.9
		s0.5,0.4,0.9,0.4c0.4,0,0.7-0.1,0.8-0.4s0.3-0.6,0.3-1l0.9-0.1c0,0.3,0,0.6-0.1,0.9s-0.2,0.5-0.4,0.8s-0.4,0.4-0.6,0.5
		s-0.5,0.2-0.9,0.2c-0.3,0-0.6-0.1-0.9-0.2s-0.5-0.3-0.6-0.5s-0.3-0.4-0.4-0.7s-0.1-0.5-0.1-0.8v-7.9c0-0.3,0-0.6,0.1-0.9
		s0.2-0.5,0.4-0.7s0.4-0.3,0.6-0.4s0.5-0.2,0.9-0.2H109.8z M107.7,107.8c-0.4,0-0.7,0.1-0.9,0.4s-0.3,0.6-0.3,0.9v4.1h1.2
		c0.4,0,0.7-0.1,0.8-0.4s0.3-0.5,0.3-0.9v-4.1H107.7z"/>
	<path d="M110.9,119v-4.9c0-0.3,0-0.6,0.1-0.9s0.2-0.5,0.4-0.7s0.4-0.3,0.6-0.4s0.5-0.2,0.9-0.2h1.2v-3.1c0-0.4-0.1-0.7-0.3-0.9
		s-0.5-0.4-0.9-0.4c-0.4,0-0.7,0.1-0.8,0.4s-0.3,0.6-0.3,1l-0.9,0.1c0-0.3,0-0.6,0.1-0.9s0.2-0.5,0.4-0.8s0.4-0.4,0.6-0.5
		s0.5-0.2,0.9-0.2c0.3,0,0.6,0.1,0.9,0.2s0.5,0.3,0.6,0.5s0.3,0.4,0.4,0.7s0.1,0.5,0.1,0.8v7.9c0,0.3,0,0.6-0.1,0.9
		s-0.2,0.5-0.4,0.7s-0.4,0.3-0.6,0.4s-0.5,0.2-0.9,0.2H110.9z M113,118.2c0.4,0,0.7-0.1,0.9-0.4s0.3-0.6,0.3-0.9v-4.1H113
		c-0.4,0-0.7,0.1-0.8,0.4s-0.3,0.5-0.3,0.9v4.1H113z"/>
	<path d="M120.6,107.1v9.8c0,0.3,0,0.7-0.1,0.9s-0.2,0.5-0.4,0.8s-0.4,0.4-0.6,0.5s-0.5,0.2-0.9,0.2s-0.6-0.1-0.9-0.2
		s-0.5-0.3-0.6-0.4s-0.3-0.4-0.4-0.7s-0.1-0.5-0.1-0.9v-10h0.9v10.1c0,0.4,0.1,0.7,0.3,0.9s0.5,0.4,0.9,0.4c0.4,0,0.7-0.1,0.8-0.4
		s0.3-0.6,0.3-1v-9.9H120.6z"/>
	<path d="M122.3,107.8h-1v-0.8h1v-1.5h0.9v1.5h1.6v0.8h-1.6v9.3c0,0.4,0.1,0.7,0.3,0.9s0.5,0.4,0.9,0.4h0.4v0.8h-0.4
		c-0.3,0-0.6-0.1-0.9-0.2s-0.5-0.3-0.6-0.5s-0.3-0.4-0.4-0.7s-0.1-0.5-0.1-0.8V107.8z"/>
	<path d="M128.9,119c-0.3-0.1-0.7-0.3-1-0.5s-0.7-0.7-1-1.2s-0.6-1.1-0.8-1.9s-0.3-1.7-0.3-2.7v-5.6h0.9v5.6c0,0.9,0.1,1.7,0.3,2.4
		s0.4,1.2,0.6,1.6s0.5,0.8,0.8,1s0.5,0.4,0.7,0.4v-11h0.9v17.1h-0.9V119z"/>
</g>
<path class="st4" d="M38.5,118.4"/>
</svg>
